<?xml version="1.0" encoding="UTF-8"?>
<svg version="1.1" xmlns="http://www.w3.org/2000/svg" width="2000" height="2000">
<path d="M0 0 C660 0 1320 0 2000 0 C2000 660 2000 1320 2000 2000 C1340 2000 680 2000 0 2000 C0 1340 0 680 0 0 Z " fill="#292929" transform="translate(0,0)"/>
<path d="M0 0 C0.9995874 0.00829834 1.9991748 0.01659668 3.02905273 0.02514648 C23.02466544 0.47619948 40.7971638 8.10019646 54.8125 22.4375 C70.90859774 40.91233139 73.42313452 60.53217159 73.203125 83.9921875 C73.19565107 86.34871945 73.18996359 88.70525767 73.18597412 91.0617981 C73.17080857 97.22017011 73.13160599 103.37815597 73.0871582 109.53637695 C73.0460084 115.83800027 73.02792124 122.13968688 73.0078125 128.44140625 C72.96510215 140.7736058 72.89696233 153.1055206 72.8125 165.4375 C74.06736206 165.42861755 75.32222412 165.41973511 76.6151123 165.4105835 C88.50072251 165.32913293 100.38627532 165.26936053 112.27210236 165.23025131 C118.38122789 165.20946826 124.49012625 165.18132174 130.59912109 165.13574219 C136.50600892 165.09195154 142.41267965 165.06829329 148.31971741 165.05799103 C150.56172599 165.05065887 152.80372409 165.03634279 155.04563904 165.01457977 C170.85582192 164.86735278 185.84542594 165.48265991 200.125 173.125 C200.78322754 173.46893799 201.44145508 173.81287598 202.11962891 174.16723633 C219.74922567 183.70459442 230.552172 199.01346684 236.90625 217.64453125 C242.11343908 236.80987996 238.55645739 256.46620644 229.15234375 273.66796875 C225.57383939 279.7287618 220.85414821 284.58202787 215.8125 289.4375 C214.82830078 290.45070313 214.82830078 290.45070313 213.82421875 291.484375 C201.30744208 303.59911387 182.60655655 308.6156728 165.67626953 308.55102539 C164.6707756 308.55117142 163.66528168 308.55131744 162.62931824 308.5514679 C159.31796077 308.55077327 156.0066601 308.54300194 152.6953125 308.53515625 C150.39460277 308.53329047 148.09389264 308.53186732 145.79318237 308.53086853 C139.74665219 308.52705594 133.70014615 308.51723639 127.65362549 308.50616455 C121.48002448 308.49592338 115.30641956 308.49136511 109.1328125 308.48632812 C97.02603108 308.475613 84.91926755 308.45855168 72.8125 308.4375 C72.82360306 309.66064407 72.83470612 310.88378815 72.84614563 312.14399719 C72.94811374 323.74903376 73.02274702 335.3539778 73.07156086 346.95936298 C73.09750142 352.92386561 73.13261138 358.88800262 73.18969727 364.85229492 C73.24457638 370.623049 73.27403692 376.39345451 73.28688622 382.16444969 C73.2960268 384.35096908 73.31387167 386.53747239 73.34115028 388.72384071 C73.62071772 412.08977292 69.74705748 432.46407197 53.8125 450.4375 C53.28140625 451.06269531 52.7503125 451.68789062 52.203125 452.33203125 C43.90710199 461.42890797 32.31952082 466.66038629 20.8125 470.4375 C19.77222656 470.80488281 18.73195313 471.17226562 17.66015625 471.55078125 C-1.83297667 476.04310731 -21.39933376 471.63599914 -38.1875 461.4375 C-52.93733599 451.64433831 -63.98976213 435.68144478 -68.1875 418.4375 C-69.21069736 412.62456429 -69.32339492 406.9900355 -69.30102539 401.09594727 C-69.30117142 400.08055374 -69.30131744 399.06516022 -69.3014679 398.01899719 C-69.3007742 394.68061141 -69.29300727 391.34228222 -69.28515625 388.00390625 C-69.28329014 385.68220551 -69.28186715 383.36050438 -69.28086853 381.0388031 C-69.27705854 374.9413239 -69.26724124 368.84386868 -69.25616455 362.74639893 C-69.24591776 356.51908696 -69.24136391 350.2917711 -69.23632812 344.06445312 C-69.22561759 331.85545824 -69.20855944 319.64648112 -69.1875 307.4375 C-70.44236206 307.44638245 -71.69722412 307.45526489 -72.9901123 307.4644165 C-84.87572251 307.54586707 -96.76127532 307.60563947 -108.64710236 307.64474869 C-114.75622789 307.66553174 -120.86512625 307.69367826 -126.97412109 307.73925781 C-132.88100892 307.78304846 -138.78767965 307.80670671 -144.69471741 307.81700897 C-146.93672599 307.82434113 -149.17872409 307.83865721 -151.42063904 307.86042023 C-167.23294452 308.00766699 -182.21766434 307.39002829 -196.5 299.75 C-197.15677734 299.4082373 -197.81355469 299.06647461 -198.49023438 298.71435547 C-215.96484392 289.28951107 -227.28772577 273.57111912 -233.125 254.8125 C-238.16446076 236.32335259 -235.6006438 217.43146217 -226.46069336 200.7253418 C-223.09462816 194.92938149 -218.99575123 190.10481973 -214.1875 185.4375 C-213.50171875 184.74269531 -212.8159375 184.04789063 -212.109375 183.33203125 C-193.84386808 165.84449963 -171.88449458 163.65483968 -147.80078125 163.94921875 C-145.5186593 163.95857086 -143.23652715 163.96567559 -140.95439148 163.97065735 C-135.01462964 163.98953845 -129.07550167 164.03847171 -123.13598633 164.09417725 C-117.04842701 164.14578232 -110.96076296 164.1682586 -104.87304688 164.19335938 C-92.9775896 164.24661256 -81.08259797 164.33169008 -69.1875 164.4375 C-69.19749275 162.54521416 -69.19749275 162.54521416 -69.20768738 160.61470032 C-69.26869358 148.68398361 -69.31356601 136.75329885 -69.34293652 124.82246113 C-69.35854413 118.68976109 -69.37969241 112.55718771 -69.41381836 106.42456055 C-69.44658716 100.49824478 -69.46438983 94.57205029 -69.47213173 88.64565086 C-69.47764391 86.39280478 -69.48840725 84.13996478 -69.50469017 81.88717079 C-69.60714903 67.11445532 -69.55057142 53.55060873 -62.4375 40.1875 C-61.9125293 39.17429687 -61.9125293 39.17429687 -61.37695312 38.140625 C-58.51676974 32.76161827 -55.28407512 27.96289256 -51.1875 23.4375 C-50.61902344 22.7775 -50.05054688 22.1175 -49.46484375 21.4375 C-36.77524482 7.64328631 -18.63628734 -0.20237781 0 0 Z " fill="#FDFDFD" transform="translate(435.1875,673.5625)"/>
<path d="M0 0 C2.40137254 0.00747357 4.80275123 0.01316122 7.20413208 0.01715088 C13.48086814 0.03231925 19.75722555 0.0715244 26.03381348 0.1159668 C32.45608399 0.15711039 38.87841653 0.17520245 45.30078125 0.1953125 C57.86995187 0.23802784 70.43886191 0.30538672 83.0078125 0.390625 C83.01328094 1.47698746 83.01328094 1.47698746 83.01885986 2.58529663 C83.05713043 9.49651497 83.11441208 16.40735884 83.19171524 23.31824303 C83.23079913 26.86907862 83.26317445 30.41968072 83.27880859 33.97070312 C83.42906748 65.73483178 87.87842314 92.84000504 111.0078125 116.390625 C111.74515625 117.15246094 112.4825 117.91429687 113.2421875 118.69921875 C123.62319647 128.74928951 137.49042044 135.81681202 151.3828125 139.515625 C152.60742188 139.84820313 153.83203125 140.18078125 155.09375 140.5234375 C163.65862503 142.56442241 172.38053921 142.58285639 181.13671875 142.70703125 C182.98208473 142.7382029 182.98208473 142.7382029 184.86473083 142.77000427 C188.76653855 142.8350083 192.6684094 142.89415478 196.5703125 142.953125 C199.22722838 142.99588053 201.88412001 143.03997274 204.54101562 143.08398438 C211.02988259 143.19063886 217.51881134 143.29249347 224.0078125 143.390625 C224.12416758 156.9348842 224.21276088 170.47902257 224.26687336 184.02368164 C224.29285758 190.31447123 224.32805022 196.60491638 224.38500977 202.89550781 C224.43972943 208.9774713 224.46931686 215.05910554 224.48219872 221.14129639 C224.49136728 223.45030899 224.50926935 225.75930559 224.53646278 228.06817627 C224.78776071 250.30918939 221.02935268 268.21899976 206.0078125 285.390625 C205.47542969 286.01839844 204.94304687 286.64617187 204.39453125 287.29296875 C196.08954707 296.38105317 184.51611615 301.61309022 173.0078125 305.390625 C171.96753906 305.75800781 170.92726563 306.12539062 169.85546875 306.50390625 C150.36233583 310.99623231 130.79597874 306.58912414 114.0078125 296.390625 C99.25797651 286.59746331 88.20555037 270.63456978 84.0078125 253.390625 C82.98461514 247.57768929 82.87191758 241.9431605 82.89428711 236.04907227 C82.89414108 235.03367874 82.89399506 234.01828522 82.8938446 232.97212219 C82.8945383 229.63373641 82.90230523 226.29540722 82.91015625 222.95703125 C82.91202236 220.63533051 82.91344535 218.31362938 82.91444397 215.9919281 C82.91825396 209.8944489 82.92807126 203.79699368 82.93914795 197.69952393 C82.94939474 191.47221196 82.95394859 185.2448961 82.95898438 179.01757812 C82.96969491 166.80858324 82.98675306 154.59960612 83.0078125 142.390625 C81.75295044 142.39950745 80.49808838 142.40838989 79.2052002 142.4175415 C67.31958999 142.49899207 55.43403718 142.55876447 43.54821014 142.59787369 C37.43908461 142.61865674 31.33018625 142.64680326 25.22119141 142.69238281 C19.31430358 142.73617346 13.40763285 142.75983171 7.50059509 142.77013397 C5.25858651 142.77746613 3.01658841 142.79178221 0.77467346 142.81354523 C-15.03763202 142.96079199 -30.02235184 142.34315329 -44.3046875 134.703125 C-44.96146484 134.3613623 -45.61824219 134.01959961 -46.29492188 133.66748047 C-63.76953142 124.24263607 -75.09241327 108.52424412 -80.9296875 89.765625 C-85.96914826 71.27647759 -83.4053313 52.38458717 -74.26538086 35.6784668 C-70.89931566 29.88250649 -66.80043873 25.05794473 -61.9921875 20.390625 C-61.30640625 19.69582031 -60.620625 19.00101563 -59.9140625 18.28515625 C-42.44658112 1.56166019 -23.03377358 -0.21188318 0 0 Z " fill="#FEFEFE" transform="translate(282.9921875,838.609375)"/>
<path d="M0 0 C8.00691639 -0.0466293 16.0137747 -0.08202293 24.02079391 -0.10362434 C27.73998611 -0.11399926 31.45908445 -0.12804128 35.17822266 -0.15087891 C38.77682652 -0.17283455 42.37534091 -0.18461574 45.97400665 -0.18975449 C47.99439956 -0.1951718 50.01475719 -0.21074705 52.03509521 -0.22659302 C63.5828028 -0.22797704 73.96139841 0.99021384 84.5625 5.6875 C85.78827759 6.22032593 85.78827759 6.22032593 87.03881836 6.76391602 C97.87490085 11.58699925 106.43804071 17.82119207 115 26 C115.61488281 26.54011719 116.22976563 27.08023438 116.86328125 27.63671875 C122.86209241 33.11149583 126.88690166 40.08066009 131 47 C131.57105469 47.93585937 132.14210938 48.87171875 132.73046875 49.8359375 C143.12213984 68.48217509 142.67540103 89.50479451 142.34332275 110.18280029 C142.29120582 113.78382225 142.26913627 117.38503391 142.24414062 120.98632812 C142.1912912 127.99133029 142.10651901 134.99559025 142 142 C133.68836059 142.11694881 125.377077 142.20523999 117.06481266 142.25906086 C113.20314599 142.28492008 109.34205079 142.31987061 105.48071289 142.37719727 C72.60862623 142.8520827 72.60862623 142.8520827 59 137 C58.14446533 136.65928467 57.28893066 136.31856934 56.4074707 135.9675293 C54.41813412 135.12418242 52.529262 134.20600935 50.625 133.1875 C49.64225098 132.67558105 49.64225098 132.67558105 48.63964844 132.15332031 C25.13012523 119.59722871 10.60558102 99.66677364 2.89453125 74.43359375 C0.44683923 65.03830428 -0.27357629 56.40478428 -0.1953125 46.6796875 C-0.19157317 45.32634696 -0.18873056 43.97300367 -0.18673706 42.61965942 C-0.17917285 39.09171818 -0.15958825 35.56394681 -0.1373291 32.03607178 C-0.11671341 28.42250871 -0.10770204 24.80891767 -0.09765625 21.1953125 C-0.076334 14.13013967 -0.0422875 7.06508104 0 0 Z " fill="#0A9F73" transform="translate(366,839)"/>
<path d="M0 0 C30 0 30 0 36.2265625 5.421875 C37.51944157 7.88711051 38.58627793 10.19394172 39.625 12.75 C40.26396844 14.05286582 40.91524804 15.34975934 41.578125 16.640625 C42.88327012 19.2133016 44.12649675 21.80204657 45.32128906 24.42773438 C47.55315601 29.17710568 50.21640182 33.56038481 53 38 C53.94987279 39.57877344 54.89639982 41.15956391 55.83984375 42.7421875 C59.35654795 48.60297945 62.90086113 54.44698567 66.44802856 60.28936768 C67.18688756 61.50633333 67.92555753 62.72341376 68.66403198 63.94061279 C72.26688968 69.87879593 75.87647626 75.81229957 79.53125 81.71875 C80.05001709 82.55905762 80.56878418 83.39936523 81.10327148 84.26513672 C82.04940531 85.79522365 82.99921832 87.32304406 83.95336914 88.84814453 C87 93.77826735 87 93.77826735 87 96 C87.66 96 88.32 96 89 96 C89.39239868 94.94341187 89.39239868 94.94341187 89.79272461 93.86547852 C91.08772408 90.79178613 92.62721936 88.02834092 94.31640625 85.15234375 C94.8089817 84.31138153 94.8089817 84.31138153 95.31150818 83.45343018 C96.39148574 81.61259191 97.47681412 79.77497651 98.5625 77.9375 C99.32235237 76.64564021 100.08211662 75.35372859 100.84179688 74.06176758 C106.50258023 64.45353722 112.27854844 54.91743625 118.09140015 45.40066528 C121.74987567 39.40879306 125.40493355 33.42151948 128.81323242 27.2824707 C129.50771875 26.03482258 130.2157625 24.79460098 130.9387207 23.56323242 C133.3544832 19.412786 135.146304 15.23893589 136.7512207 10.70947266 C138.1875 8 138.1875 8 145 0 C154.9 0 164.8 0 175 0 C175 51.48 175 102.96 175 156 C164.11 156 153.22 156 142 156 C141.67 125.64 141.34 95.28 141 64 C135.39 73.57 129.78 83.14 124 93 C116.25 105.9375 116.25 105.9375 112.5390625 111.9921875 C110.08084578 116.06164991 107.87202555 120.17977428 105.7734375 124.4453125 C98.08060762 139.69880942 98.08060762 139.69880942 91.83203125 142.06640625 C87.09344211 143.0354104 83.1490533 142.53415849 79 140 C74.2027664 135.23445404 71.45126967 128.94857108 68.50537109 122.95117188 C65.99295025 118.02575131 63.0446314 113.37888731 60.125 108.6875 C58.95121513 106.76679086 57.7793573 104.84490281 56.609375 102.921875 C56.02091797 101.95701172 55.43246094 100.99214844 54.82617188 99.99804688 C52.92751689 96.88100366 51.03353392 93.76116065 49.140625 90.640625 C48.5101123 89.60204346 47.87959961 88.56346191 47.22998047 87.4934082 C46.02490545 85.50815893 44.82075119 83.52235036 43.61767578 81.53588867 C43.07095215 80.63588135 42.52422852 79.73587402 41.9609375 78.80859375 C41.48446777 78.02282959 41.00799805 77.23706543 40.51708984 76.42749023 C38.73764638 73.58020887 36.86245745 70.79368618 35 68 C34.67 97.04 34.34 126.08 34 156 C22.78 156 11.56 156 0 156 C0 104.52 0 53.04 0 0 Z " fill="#FDFDFD" transform="translate(733,835)"/>
<path d="M0 0 C11.55 0 23.1 0 35 0 C35 54.45 35 108.9 35 165 C24.11 165 13.22 165 2 165 C2 160.71 2 156.42 2 152 C1.34 152 0.68 152 0 152 C-0.23203125 152.5878125 -0.4640625 153.175625 -0.703125 153.78125 C-4.3838154 160.07833477 -12.92831816 163.26729616 -19.5625 165.4375 C-36.11553664 169.62103552 -53.66340963 167.4898644 -68.4375 158.76171875 C-79.87518957 150.89830717 -86.7658575 141.68710628 -92 129 C-92.35320312 128.15050781 -92.70640625 127.30101562 -93.0703125 126.42578125 C-99.08087991 110.7427461 -96.96380117 92.40950292 -90.8671875 77.16796875 C-83.38038799 61.02920556 -70.40523448 50.91583371 -53.99609375 44.8984375 C-38.88062153 40.49747008 -23.28257922 42.48611977 -9.3515625 49.5234375 C-6.36809331 51.39677862 -3.70633087 53.74472428 -1 56 C-0.67 37.52 -0.34 19.04 0 0 Z " fill="#FDFDFD" transform="translate(1169,826)"/>
<path d="M0 0 C1.28589593 3.85768778 0.43749924 5.04706974 -1.08984375 8.76171875 C-1.54423828 9.87998047 -1.99863281 10.99824219 -2.46679688 12.15039062 C-2.95212891 13.31763672 -3.43746094 14.48488281 -3.9375 15.6875 C-4.41896484 16.86634766 -4.90042969 18.04519531 -5.39648438 19.25976562 C-6.58925776 22.17674608 -7.79072299 25.0898314 -9 28 C-14.30687401 27.05993821 -18.84706609 24.91442389 -23.67773438 22.61523438 C-33.36414746 18.1884968 -42.95056137 17.61530587 -53.5 17.5625 C-54.65886719 17.52962891 -55.81773438 17.49675781 -57.01171875 17.46289062 C-66.07945465 17.40653746 -72.55214959 19.3993592 -79.625 25.125 C-81.75383262 29.57619547 -81.94359676 34.1710048 -81 39 C-74.67849256 48.35247945 -62.05094373 49.94888197 -51.6875 52.3125 C-8.81964008 62.61952643 -8.81964008 62.61952643 4 80 C9.41666752 89.40393666 9.58036621 102.31001927 7.12890625 112.6875 C4.59041445 119.74533949 1.11641565 125.52688435 -4 131 C-4.49886719 131.54011719 -4.99773437 132.08023438 -5.51171875 132.63671875 C-20.97123579 147.47318221 -44.77352137 149.65515119 -65.0703125 149.25390625 C-72.25053591 148.97667217 -79.01418475 147.66191897 -86 146 C-87.24136719 145.73316406 -88.48273438 145.46632813 -89.76171875 145.19140625 C-100.76549217 142.60431219 -112.13759069 138.20210984 -121 131 C-120.38333953 127.25577927 -119.30434425 124.13978312 -117.71484375 120.69921875 C-117.04291992 119.23452148 -117.04291992 119.23452148 -116.35742188 117.74023438 C-115.88884766 116.73283203 -115.42027344 115.72542969 -114.9375 114.6875 C-114.46505859 113.66076172 -113.99261719 112.63402344 -113.50585938 111.57617188 C-112.34197675 109.048548 -111.17322145 106.52329928 -110 104 C-107.04641079 105.15325488 -104.17729765 106.35933203 -101.35546875 107.8046875 C-82.6766243 117.13848831 -61.16082047 122.91440377 -40.49609375 116.9140625 C-36.08417187 115.29842914 -33.22399527 113.42799448 -30.125 109.8125 C-28.52088916 105.80222289 -28.19407849 102.25433568 -29 98 C-34.72993557 89.9422781 -45.19716912 87.91685592 -54.25 85.625 C-56.57339888 85.01485411 -58.89631166 84.4028544 -61.21875 83.7890625 C-62.93771484 83.33708496 -62.93771484 83.33708496 -64.69140625 82.87597656 C-103.9420986 72.48404296 -103.9420986 72.48404296 -112.84375 58 C-118.58847954 46.94410541 -119.75430685 34.9511922 -117.3515625 22.69140625 C-113.30656993 10.50456966 -103.5774797 0.77283455 -92.4375 -5.25 C-65.20851427 -18.06158688 -25.49353028 -16.48288596 0 0 Z " fill="#059369" transform="translate(1347,845)"/>
<path d="M0 0 C11.48467081 9.24375943 17.70060868 20.53105164 21.2421875 34.8046875 C21.2421875 42.7246875 21.2421875 50.6446875 21.2421875 58.8046875 C-8.4578125 58.8046875 -38.1578125 58.8046875 -68.7578125 58.8046875 C-64.11120495 70.42120637 -61.41454487 74.28453349 -50.7578125 79.8046875 C-41.94950968 83.53127716 -29.74817156 83.07113375 -20.7578125 79.8046875 C-13.22130866 76.62993608 -13.22130866 76.62993608 -6.7578125 71.8046875 C-4.21182203 72.01642302 -3.02561034 72.5551338 -1.15234375 74.30078125 C-0.63027344 74.94144531 -0.10820313 75.58210937 0.4296875 76.2421875 C3.28281815 79.65974182 6.19254907 83.00286624 9.1796875 86.3046875 C9.95183594 87.160625 10.72398438 88.0165625 11.51953125 88.8984375 C12.08800781 89.5275 12.65648437 90.1565625 13.2421875 90.8046875 C6.10047608 100.26262965 -3.46550813 105.56202001 -14.7578125 108.8046875 C-15.53769531 109.03027344 -16.31757812 109.25585938 -17.12109375 109.48828125 C-37.98763257 114.31387635 -59.66941602 110.58932426 -78.00244141 99.91210938 C-91.09986901 91.6492538 -99.19781748 78.88644997 -103.5703125 64.3046875 C-107.29890788 47.8045815 -105.06013353 31.03975942 -96.5234375 16.40234375 C-93.37632341 11.77218695 -89.69855248 7.76646345 -85.7578125 3.8046875 C-84.98050781 2.97517578 -84.98050781 2.97517578 -84.1875 2.12890625 C-61.89980683 -19.51699471 -23.6993561 -17.64201269 0 0 Z " fill="#FCFCFC" transform="translate(1037.7578125,882.1953125)"/>
<path d="M0 0 C11.88 0 23.76 0 36 0 C45.12219352 21.58376146 54.1748781 43.18797665 63.03320312 64.88110352 C63.35994522 65.68075027 63.68668732 66.48039703 64.02333069 67.30427551 C64.63500084 68.80182303 65.24591437 70.29967989 65.85594177 71.79789734 C67.33672973 75.43966174 67.33672973 75.43966174 69 79 C72.42387834 72.35798229 75.50411678 65.65115788 78.328125 58.734375 C78.72143005 57.77968323 79.11473511 56.82499146 79.5199585 55.84136963 C80.76683226 52.81234896 82.0084977 49.78122562 83.25 46.75 C84.06606536 44.76548479 84.88246944 42.78110883 85.69921875 40.796875 C89.00782548 32.75281456 92.30961039 24.70613827 95.58007812 16.64648438 C95.99433044 15.62766174 96.40858276 14.60883911 96.83538818 13.55914307 C97.62846473 11.60767692 98.4194411 9.65535563 99.20806885 7.7020874 C99.5606073 6.83521301 99.91314575 5.96833862 100.27636719 5.07519531 C100.58612488 4.30991516 100.89588257 3.54463501 101.21502686 2.75616455 C102 1 102 1 103 0 C105.44830426 -0.08843793 107.86820599 -0.11528752 110.31640625 -0.09765625 C111.41298805 -0.09553383 111.41298805 -0.09553383 112.53172302 -0.09336853 C114.87535632 -0.08775408 117.21889539 -0.07519922 119.5625 -0.0625 C121.14778508 -0.05748686 122.73307166 -0.05292363 124.31835938 -0.04882812 C128.2122761 -0.03777997 132.10612205 -0.02050572 136 0 C135.41678908 3.31559275 134.61208767 6.2323761 133.27612305 9.31982422 C132.91954117 10.15058472 132.56295929 10.98134521 132.1955719 11.83728027 C131.80490036 12.73402466 131.41422882 13.63076904 131.01171875 14.5546875 C130.39628456 15.98367371 130.39628456 15.98367371 129.76841736 17.44152832 C128.41239513 20.58788617 127.04984234 23.73137421 125.6875 26.875 C124.25080129 30.20517712 122.81589294 33.53612213 121.38104248 36.86709595 C120.39400354 39.15816574 119.40640681 41.44899531 118.41827393 43.73959351 C113.8683215 54.28991784 109.36521662 64.85984034 104.87399292 75.43527222 C103.62838958 78.36702203 102.38103724 81.29802119 101.13305664 84.22875977 C97.63989409 92.4328095 94.1493377 100.63779917 90.68643188 108.85467529 C89.32151016 112.09060054 87.95094985 115.32411829 86.57928467 118.55718994 C85.95583889 120.03061142 85.33499567 121.50513756 84.71710205 122.980896 C77.64346267 139.87165912 70.13026635 154.15918809 52.796875 161.99609375 C39.44308962 167.32231731 23.08517454 166.53121605 10 161 C1.50430229 157.19075506 1.50430229 157.19075506 0.25512695 154.24121094 C-0.09711725 151.14685513 0.88495374 149.54817928 2.30859375 146.796875 C2.80810547 145.8171875 3.30761719 144.8375 3.82226562 143.828125 C4.35529297 142.81234375 4.88832031 141.7965625 5.4375 140.75 C5.96666016 139.71875 6.49582031 138.6875 7.04101562 137.625 C8.35008545 135.07762089 9.67001355 132.53650356 11 130 C13.4678071 130.97791174 15.91268539 131.95979126 18.32421875 133.0703125 C25.79070191 136.40246201 31.91737161 137.20471002 39.8125 134.875 C44.37971685 132.18840185 48.4225369 128.20562823 50 123 C49.5997794 116.43474866 47.11681096 111.00783949 44.49609375 105.03515625 C44.02938263 103.95284225 43.56267151 102.87052826 43.08181763 101.75541687 C41.80677001 98.802366 40.52438393 95.85263493 39.23894119 92.90409851 C37.89285526 89.81098342 36.55697908 86.71346843 35.22045898 83.61621094 C32.97495946 78.41504988 30.72479496 73.21593249 28.47167969 68.01806641 C23.61272501 56.80579418 18.78537503 45.57994102 13.96700001 34.35017872 C12.63510709 31.24640459 11.30167731 28.14330994 9.96456909 25.04177856 C8.47507417 21.58625883 6.98913466 18.12923021 5.50390625 14.671875 C4.83840256 13.13197151 4.83840256 13.13197151 4.15945435 11.56095886 C3.75564545 10.61884048 3.35183655 9.67672211 2.93579102 8.70605469 C2.58404312 7.88901062 2.23229523 7.07196655 1.86988831 6.23016357 C1 4 1 4 0 0 Z " fill="#059469" transform="translate(1359,871)"/>
<path d="M0 0 C10.56562047 9.01350277 15.68552217 19.23947786 17 33 C17.08286959 35.72972285 17.12734188 38.43186464 17.11352539 41.16015625 C17.11367142 41.93185654 17.11381744 42.70355682 17.1139679 43.49864197 C17.11327768 46.01995774 17.10552751 48.54119732 17.09765625 51.0625 C17.0957889 52.82226521 17.09436649 54.58203095 17.09336853 56.34179688 C17.08956832 60.95145121 17.0797596 65.56107355 17.06866455 70.17071533 C17.05839652 74.88333707 17.0538594 79.59596403 17.04882812 84.30859375 C17.03813488 93.53907875 17.02055854 102.7695317 17 112 C5.78 112 -5.44 112 -17 112 C-17.03738281 107.06289063 -17.07476563 102.12578125 -17.11328125 97.0390625 C-17.14358939 93.89449764 -17.17475572 90.74998743 -17.20898438 87.60546875 C-17.26312539 82.62421566 -17.31424167 77.64307069 -17.34643555 72.66162109 C-17.37261736 68.64138633 -17.41312235 64.62151867 -17.46318626 60.60151291 C-17.47975512 59.0747271 -17.49133111 57.54787795 -17.49761391 56.02101517 C-17.54707855 45.09599686 -17.7253772 35.10853874 -25.109375 26.47265625 C-30.50086853 22.27308381 -35.8185408 21.47216405 -42.4375 21.5625 C-43.56128052 21.56950928 -43.56128052 21.56950928 -44.70776367 21.57666016 C-50.43375669 21.73035293 -54.17361577 22.78241051 -59 26 C-59.70382812 26.33773437 -60.40765625 26.67546875 -61.1328125 27.0234375 C-63.59209865 28.30967503 -63.94073988 29.45777571 -65 32 C-65.515625 32.969375 -66.03125 33.93875 -66.5625 34.9375 C-68.90371212 39.92529974 -69.13528126 44.42840693 -69.20532227 49.90161133 C-69.21522186 50.57533783 -69.22512146 51.24906433 -69.23532104 51.94320679 C-69.26674923 54.1561133 -69.291619 56.36904124 -69.31640625 58.58203125 C-69.33699194 60.12188759 -69.35798883 61.66173849 -69.37937927 63.20158386 C-69.43443318 67.24404475 -69.48391564 71.28655522 -69.53222656 75.32910156 C-69.59142228 80.18506005 -69.65755801 85.04092841 -69.72252655 89.89681244 C-69.82032605 97.26448633 -69.90932556 104.63221945 -70 112 C-81.55 112 -93.1 112 -105 112 C-105 72.4 -105 32.8 -105 -8 C-94.11 -8 -83.22 -8 -72 -8 C-71.505 -1.565 -71.505 -1.565 -71 5 C-69.948125 3.96875 -68.89625 2.9375 -67.8125 1.875 C-49.73130947 -13.93001229 -19.00778802 -14.81037702 0 0 Z " fill="#059469" transform="translate(1614,879)"/>
<path d="M0 0 C6.88281278 5.34688308 11.13551273 11.17588935 15.328125 18.80859375 C12.89738421 21.54222743 10.306246 23.04330199 7.07421875 24.7265625 C6.05521484 25.25830078 5.03621094 25.79003906 3.98632812 26.33789062 C2.92349609 26.88509766 1.86066406 27.43230469 0.765625 27.99609375 C-0.30107422 28.55490234 -1.36777344 29.11371094 -2.46679688 29.68945312 C-10.40833906 33.80859375 -10.40833906 33.80859375 -12.671875 33.80859375 C-13.74092277 32.44933356 -14.75221907 31.04440718 -15.734375 29.62109375 C-20.05431277 23.88226429 -25.52922518 20.12024399 -32.671875 18.80859375 C-43.76475434 17.96592172 -51.32893521 19.06968959 -59.984375 26.12109375 C-66.68340812 32.39394583 -69.14208792 39.46044335 -69.89453125 48.4765625 C-70.1957822 57.76295052 -68.14748157 65.32526477 -62.671875 72.80859375 C-62.341875 73.79859375 -62.011875 74.78859375 -61.671875 75.80859375 C-59.84107812 76.89114774 -59.84107812 76.89114774 -57.671875 77.80859375 C-57.00671875 78.23398437 -56.3415625 78.659375 -55.65625 79.09765625 C-47.47604572 83.98861755 -38.04497272 84.41081916 -28.890625 82.109375 C-21.97116589 79.30130683 -16.03574219 74.53632814 -12.671875 67.80859375 C-6.48851408 69.45332612 -1.27531634 72.73412462 4.203125 75.93359375 C5.17765625 76.49691406 6.1521875 77.06023437 7.15625 77.640625 C9.54974462 79.02509738 11.9402088 80.41452916 14.328125 81.80859375 C12.75913349 90.72134999 5.539333 97.6770686 -1.671875 102.80859375 C-19.08036106 113.17078784 -39.8394263 115.65642615 -59.42407227 110.77880859 C-75.49753043 106.27667888 -89.69057233 96.28681615 -98.20703125 81.7734375 C-106.22270459 65.54971467 -108.63576997 47.34318541 -102.91796875 30.01171875 C-96.35448513 13.14006808 -85.10112858 2.22543309 -68.94140625 -5.49609375 C-47.48521645 -14.61081624 -19.29882045 -13.43405915 0 0 Z " fill="#059369" transform="translate(1758.671875,880.19140625)"/>
<path d="M0 0 C8.29003677 8.86841143 11.18867122 17.92684585 10.93359375 29.85546875 C10.25161784 38.22320487 7.26596555 45.5599838 1.6875 51.875 C-6.425143 58.66461341 -14.07168052 60.41431678 -24.546875 60.25 C-32.33279159 59.47463901 -38.57097122 55.69985663 -43.7734375 49.91796875 C-50.97551639 40.3578488 -51.50289369 30.42181884 -50.3125 18.875 C-48.54289672 9.34442232 -43.03557756 2.50729966 -35.3125 -3.125 C-24.33472967 -9.74429251 -10.17385691 -6.52662519 0 0 Z " fill="#2A2A2A" transform="translate(1159.3125,904.125)"/>
<path d="M0 0 C0.63292969 0.40992188 1.26585937 0.81984375 1.91796875 1.2421875 C2.54058594 1.63148438 3.16320312 2.02078125 3.8046875 2.421875 C9.50774345 6.60329129 12.37170625 12.77859808 14.91796875 19.2421875 C14.91796875 20.2321875 14.91796875 21.2221875 14.91796875 22.2421875 C-4.55203125 22.2421875 -24.02203125 22.2421875 -44.08203125 22.2421875 C-43.01487108 13.7049061 -41.48313486 8.92811177 -34.89453125 3.41015625 C-24.82076906 -3.58362122 -11.21631231 -6.102684 0 0 Z " fill="#303030" transform="translate(1012.08203125,898.7578125)"/>
</svg>
