<?xml version="1.0" encoding="UTF-8"?>
<svg version="1.1" xmlns="http://www.w3.org/2000/svg" width="2000" height="2000">
<path d="M0 0 C660 0 1320 0 2000 0 C2000 660 2000 1320 2000 2000 C1340 2000 680 2000 0 2000 C0 1340 0 680 0 0 Z " fill="#FEFEFE" transform="translate(0,0)"/>
<path d="M0 0 C1.00587158 0.00942627 2.01174316 0.01885254 3.0480957 0.02856445 C10.55528399 0.18058577 17.48235477 0.93844427 24.625 3.375 C26.13900391 3.88546875 26.13900391 3.88546875 27.68359375 4.40625 C35.24337732 7.25681807 41.33263349 11.36108256 47.625 16.375 C48.27210938 16.85710938 48.91921875 17.33921875 49.5859375 17.8359375 C61.81161652 27.40626542 70.2131789 44.22035511 72.625 59.375 C73.3162013 67.53526401 73.09234426 75.74897273 73.015625 83.9296875 C73.00815107 86.28621945 73.00246359 88.64275767 72.99847412 90.9992981 C72.98330857 97.15767011 72.94410599 103.31565597 72.8996582 109.47387695 C72.8585084 115.77550027 72.84042124 122.07718688 72.8203125 128.37890625 C72.77760215 140.7111058 72.70946233 153.0430206 72.625 165.375 C73.87986206 165.36611755 75.13472412 165.35723511 76.4276123 165.3480835 C88.31322251 165.26663293 100.19877532 165.20686053 112.08460236 165.16775131 C118.19372789 165.14696826 124.30262625 165.11882174 130.41162109 165.07324219 C136.31850892 165.02945154 142.22517965 165.00579329 148.13221741 164.99549103 C150.37422599 164.98815887 152.61622409 164.97384279 154.85813904 164.95207977 C170.66883406 164.80484801 185.65725945 165.42071584 199.9375 173.0625 C200.59500244 173.40571289 201.25250488 173.74892578 201.92993164 174.10253906 C219.30058523 183.4929986 230.33661878 199.32618363 236.7890625 217.6875 C241.84310871 236.58113069 238.15170475 256.06820732 229.16796875 273.14453125 C218.61805239 291.08708973 201.5259093 302.12108356 181.625 307.375 C176.22268614 308.5155792 170.98138271 308.50949864 165.48876953 308.48852539 C164.4832756 308.48867142 163.47778168 308.48881744 162.44181824 308.4889679 C159.13046077 308.48827327 155.8191601 308.48050194 152.5078125 308.47265625 C150.20710277 308.47079047 147.90639264 308.46936732 145.60568237 308.46836853 C139.55915219 308.46455594 133.51264615 308.45473639 127.46612549 308.44366455 C121.29252448 308.43342338 115.11891956 308.42886511 108.9453125 308.42382812 C96.83853108 308.413113 84.73176755 308.39605168 72.625 308.375 C72.63610306 309.59814407 72.64720612 310.82128815 72.65864563 312.08149719 C72.76061374 323.68653376 72.83524702 335.2914778 72.88406086 346.89686298 C72.91000142 352.86136561 72.94511138 358.82550262 73.00219727 364.78979492 C73.05707638 370.560549 73.08653692 376.33095451 73.09938622 382.10194969 C73.1085268 384.28846908 73.12637167 386.47497239 73.15365028 388.66134071 C73.43321772 412.02727292 69.55955748 432.40157197 53.625 450.375 C53.09390625 451.00019531 52.5628125 451.62539062 52.015625 452.26953125 C43.71960199 461.36640797 32.13202082 466.59788629 20.625 470.375 C19.58472656 470.74238281 18.54445313 471.10976562 17.47265625 471.48828125 C-2.02047667 475.98060731 -21.58683376 471.57349914 -38.375 461.375 C-53.12483599 451.58183831 -64.17726213 435.61894478 -68.375 418.375 C-69.39819736 412.56206429 -69.51089492 406.9275355 -69.48852539 401.03344727 C-69.48867142 400.01805374 -69.48881744 399.00266022 -69.4889679 397.95649719 C-69.4882742 394.61811141 -69.48050727 391.27978222 -69.47265625 387.94140625 C-69.47079014 385.61970551 -69.46936715 383.29800438 -69.46836853 380.9763031 C-69.46455854 374.8788239 -69.45474124 368.78136868 -69.44366455 362.68389893 C-69.43341776 356.45658696 -69.42886391 350.2292711 -69.42382812 344.00195312 C-69.41311759 331.79295824 -69.39605944 319.58398112 -69.375 307.375 C-70.62986206 307.38388245 -71.88472412 307.39276489 -73.1776123 307.4019165 C-85.06322251 307.48336707 -96.94877532 307.54313947 -108.83460236 307.58224869 C-114.94372789 307.60303174 -121.05262625 307.63117826 -127.16162109 307.67675781 C-133.06850892 307.72054846 -138.97517965 307.74420671 -144.88221741 307.75450897 C-147.12422599 307.76184113 -149.36622409 307.77615721 -151.60813904 307.79792023 C-167.45174211 307.94545844 -182.42316499 307.29624541 -196.75 299.6875 C-197.40863037 299.3479126 -198.06726074 299.0083252 -198.74584961 298.65844727 C-204.7780457 295.41136511 -209.58004118 291.25032126 -214.375 286.375 C-214.99503906 285.83617187 -215.61507812 285.29734375 -216.25390625 284.7421875 C-227.68046147 274.56820769 -234.50542418 257.27170892 -235.51660156 242.27490234 C-236.50242458 222.81111099 -231.98284624 204.85298328 -218.9375 189.9375 C-217.43849041 188.39515169 -215.91828222 186.87304808 -214.375 185.375 C-213.68921875 184.68019531 -213.0034375 183.98539063 -212.296875 183.26953125 C-194.82939362 166.54603519 -175.41658608 164.77249182 -152.3828125 164.984375 C-149.98143996 164.99184857 -147.58006127 164.99753622 -145.17868042 165.00152588 C-138.90194436 165.01669425 -132.62558695 165.0558994 -126.34899902 165.1003418 C-119.92672851 165.14148539 -113.50439597 165.15957745 -107.08203125 165.1796875 C-94.51286063 165.22240284 -81.94395059 165.28976172 -69.375 165.375 C-69.38166183 164.09872742 -69.38832367 162.82245483 -69.39518738 161.50750732 C-69.45616337 149.44403338 -69.50105164 137.38059096 -69.53043652 125.31699753 C-69.54605171 119.11588843 -69.56721409 112.91490435 -69.60131836 106.71386719 C-69.63405981 100.7227176 -69.65188416 94.73168782 -69.65963173 88.74045563 C-69.66514876 86.46166347 -69.6759218 84.18287742 -69.69219017 81.90413666 C-69.84853357 59.08469963 -69.84853357 59.08469963 -66.375 49.375 C-65.81039062 47.68697266 -65.81039062 47.68697266 -65.234375 45.96484375 C-57.33848573 27.08699581 -44.49056913 13.67720731 -26.140625 4.8125 C-17.50208227 1.31246283 -9.29832912 -0.13589684 0 0 Z " fill="#60C5FE" transform="translate(435.375,673.625)"/>
<path d="M0 0 C1.00587158 0.00942627 2.01174316 0.01885254 3.0480957 0.02856445 C10.55528399 0.18058577 17.48235477 0.93844427 24.625 3.375 C26.13900391 3.88546875 26.13900391 3.88546875 27.68359375 4.40625 C35.24337732 7.25681807 41.33263349 11.36108256 47.625 16.375 C48.59566406 17.09816406 48.59566406 17.09816406 49.5859375 17.8359375 C61.81161652 27.40626542 70.2131789 44.22035511 72.625 59.375 C73.3162013 67.53526401 73.09234426 75.74897273 73.015625 83.9296875 C73.00815107 86.28621945 73.00246359 88.64275767 72.99847412 90.9992981 C72.98330857 97.15767011 72.94410599 103.31565597 72.8996582 109.47387695 C72.8585084 115.77550027 72.84042124 122.07718688 72.8203125 128.37890625 C72.77760215 140.7111058 72.70946233 153.0430206 72.625 165.375 C73.87986206 165.36611755 75.13472412 165.35723511 76.4276123 165.3480835 C88.31322251 165.26663293 100.19877532 165.20686053 112.08460236 165.16775131 C118.19372789 165.14696826 124.30262625 165.11882174 130.41162109 165.07324219 C136.31850892 165.02945154 142.22517965 165.00579329 148.13221741 164.99549103 C150.37422599 164.98815887 152.61622409 164.97384279 154.85813904 164.95207977 C170.66883406 164.80484801 185.65725945 165.42071584 199.9375 173.0625 C200.59500244 173.40571289 201.25250488 173.74892578 201.92993164 174.10253906 C219.30058523 183.4929986 230.33661878 199.32618363 236.7890625 217.6875 C241.84310871 236.58113069 238.15170475 256.06820732 229.16796875 273.14453125 C219.24590998 290.01927354 203.03549592 301.61410986 184.25954056 306.81586456 C175.09592573 308.76068252 165.43134841 308.08906173 156.12109375 307.9609375 C153.70159466 307.94972133 151.28208178 307.94119262 148.86256409 307.93521118 C142.55112866 307.91250372 136.24054608 307.85373858 129.92944336 307.7869873 C123.46675141 307.72517167 117.00391917 307.69811285 110.54101562 307.66796875 C97.90198378 307.60397609 85.26353764 307.503003 72.625 307.375 C72.61913376 306.64409653 72.61326752 305.91319305 72.60722351 305.16014099 C72.54883392 298.2038863 72.47650201 291.24789429 72.38928509 284.29194546 C72.34493823 280.71752195 72.30560878 277.14320313 72.27856445 273.56860352 C72.25216863 270.10593264 72.21152541 266.6436728 72.16181374 263.18126106 C72.13750134 261.2458909 72.12719532 259.31036052 72.11735535 257.37486267 C71.72533858 233.21053456 63.7657228 210.64808359 46.625 193.375 C45.3565625 192.0446875 45.3565625 192.0446875 44.0625 190.6875 C43.258125 189.924375 42.45375 189.16125 41.625 188.375 C41.0784375 187.84519531 40.531875 187.31539062 39.96875 186.76953125 C17.9366065 166.31756197 -10.39580117 164.92891739 -38.8237915 164.70544434 C-42.27718617 164.67523343 -45.73036385 164.62884717 -49.18359375 164.58398438 C-55.91396038 164.49972881 -62.64434296 164.4311145 -69.375 164.375 C-69.44470115 151.15275051 -69.49791323 137.93054518 -69.53043652 124.70814896 C-69.54605093 118.56757336 -69.56721185 112.42712404 -69.60131836 106.28662109 C-69.63406264 100.35382608 -69.65188474 94.42115207 -69.65963173 88.48827362 C-69.66514826 86.23180997 -69.6759203 83.97535247 -69.69219017 81.71894073 C-69.84856726 59.12006625 -69.84856726 59.12006625 -66.375 49.375 C-65.99859375 48.24964844 -65.6221875 47.12429688 -65.234375 45.96484375 C-57.33848573 27.08699581 -44.49056913 13.67720731 -26.140625 4.8125 C-17.50208227 1.31246283 -9.29832912 -0.13589684 0 0 Z " fill="#004AAD" transform="translate(435.375,673.625)"/>
<path d="M0 0 C7.41624864 -0.07021596 14.83242298 -0.12316792 22.24893951 -0.15543652 C25.69456411 -0.17094162 29.13995758 -0.19189342 32.58544922 -0.22631836 C62.23502352 -0.51446719 62.23502352 -0.51446719 75 3 C75.82226074 3.22453857 76.64452148 3.44907715 77.49169922 3.68041992 C102.13031215 11.184696 120.79431079 28.7252849 133 51 C140.17601602 65.65025609 142.16167403 79.92553016 142.09765625 96.02734375 C142.0957884 97.38497363 142.09436623 98.74260419 142.09336853 100.10023499 C142.08957222 103.65282084 142.07976696 107.20536504 142.06866455 110.75793457 C142.05838801 114.39135169 142.0538576 118.02477562 142.04882812 121.65820312 C142.03814177 128.77215233 142.02110049 135.88607343 142 143 C133.68836059 143.11694881 125.377077 143.20523999 117.06481266 143.25906086 C113.20314599 143.28492008 109.34205079 143.31987061 105.48071289 143.37719727 C72.60862623 143.8520827 72.60862623 143.8520827 59 138 C58.14446533 137.65928467 57.28893066 137.31856934 56.4074707 136.9675293 C54.41813412 136.12418242 52.529262 135.20600935 50.625 134.1875 C49.64225098 133.67558105 49.64225098 133.67558105 48.63964844 133.15332031 C25.20339229 120.63635957 11.35949506 101.09503234 2.89453125 76.3125 C0.27577768 66.61510688 -0.27493273 57.3858372 -0.1953125 47.36328125 C-0.19157217 45.98894967 -0.18873004 44.61461538 -0.18673706 43.24028015 C-0.17918072 39.6613907 -0.15960332 36.08266928 -0.1373291 32.50384521 C-0.11669602 28.83657096 -0.1076984 25.16926897 -0.09765625 21.50195312 C-0.07634793 14.33455966 -0.04231158 7.16730357 0 0 Z " fill="#23ADFE" transform="translate(366,838)"/>
<path d="M0 0 C9.9 0 19.8 0 30 0 C36.46346826 6.94996587 36.46346826 6.94996587 37.7734375 10.703125 C40.12689768 16.64270152 43.44671133 21.84806828 46.83984375 27.24328613 C48.70985267 30.23609066 50.52980048 33.25891857 52.3515625 36.28125 C52.72750549 36.90380676 53.10344849 37.52636353 53.49078369 38.16778564 C59.18147029 47.6015297 64.78972524 57.08453908 70.40466309 66.56347656 C70.78932739 67.2128418 71.1739917 67.86220703 71.5703125 68.53125 C71.94885376 69.17030273 72.32739502 69.80935547 72.71740723 70.46777344 C77.77461191 79.00067296 82.8832439 87.50271243 88 96 C94.65391999 85.61857692 100.94275783 75.0365127 107.14987183 64.3838501 C113.01594143 54.32134851 119.01192077 44.34587961 125.08755493 34.40872192 C129.96003613 26.43459979 134.68771783 18.41501648 139.140625 10.19921875 C141.19937845 6.65695179 143.61861662 3.33393673 146 0 C155.9 0 165.8 0 176 0 C176 51.48 176 102.96 176 156 C164.78 156 153.56 156 142 156 C141.67 125.64 141.34 95.28 141 64 C138.03 69.28 135.06 74.56 132 80 C129.66340633 83.95013719 127.31607093 87.88815669 124.9375 91.8125 C118.69235989 102.16510105 112.51052938 112.55296626 106.36694336 122.96606445 C105.13296356 125.05420421 103.89110428 127.13771595 102.63989258 129.21557617 C101.61584087 130.95434492 100.63142977 132.71782279 99.7097168 134.51293945 C98.60312278 136.58374924 97.61782801 138.29934903 96 140 C92.8323721 140.92047926 91.20428401 141.18210366 88.0625 141.0625 C87.37220703 141.10181641 86.68191406 141.14113281 85.97070312 141.18164062 C83.67137911 141.15766663 82.11224265 140.92104399 80 140 C77.43447232 137.33205924 75.79225646 134.21945003 74 131 C72.76936911 128.99039071 71.53335443 126.98407182 70.29296875 124.98046875 C68.92250864 122.71730523 67.55411945 120.45297614 66.1875 118.1875 C65.44911051 116.96699092 64.71049933 115.74661593 63.97167969 114.52636719 C62.43189631 111.98279235 60.89306869 109.4386432 59.35498047 106.89404297 C55.8614546 101.11565355 52.35868833 95.34287312 48.85488892 89.57070923 C47.77660356 87.79383911 46.69915224 86.01646552 45.62182617 84.23901367 C44.95771729 83.14435791 44.2936084 82.04970215 43.609375 80.921875 C43.03155273 79.96893555 42.45373047 79.01599609 41.85839844 78.03417969 C39.59648014 74.34117908 37.29523981 70.6723837 35 67 C34.67 96.37 34.34 125.74 34 156 C22.78 156 11.56 156 0 156 C0 104.52 0 53.04 0 0 Z " fill="#024BAD" transform="translate(733,835)"/>
<path d="M0 0 C11.55 0 23.1 0 35 0 C35 54.45 35 108.9 35 165 C24.11 165 13.22 165 2 165 C1.505 159.06 1.505 159.06 1 153 C-0.381875 154.216875 -1.76375 155.43375 -3.1875 156.6875 C-15.5894608 166.6514685 -29.74884473 167.88633969 -45 167 C-60.48012963 165.0356995 -74.50072472 156.57687337 -84.05859375 144.37109375 C-95.40564696 127.60673772 -97.52035258 108.16286075 -94.61767578 88.39648438 C-92.681345 79.70717582 -88.24073681 72.0973207 -83 65 C-82.52820312 64.34515625 -82.05640625 63.6903125 -81.5703125 63.015625 C-74.01181014 53.36465589 -61.01307317 46.19154638 -49 44 C-44.8926229 43.69288928 -40.80488994 43.67531116 -36.6875 43.6875 C-35.07198242 43.66333008 -35.07198242 43.66333008 -33.42382812 43.63867188 C-23.90616862 43.63290709 -15.99340938 45.18321433 -8 50.5625 C-7.0925 51.16191406 -6.185 51.76132812 -5.25 52.37890625 C-3 54 -3 54 -1 56 C-0.67 37.52 -0.34 19.04 0 0 Z " fill="#014BAD" transform="translate(1169,826)"/>
<path d="M0 0 C0.74945892 0.00270905 1.49891785 0.00541809 2.27108765 0.00820923 C13.39381964 0.06922933 23.6735625 0.7110243 34.25 4.4375 C36.05404297 5.05044922 36.05404297 5.05044922 37.89453125 5.67578125 C43.67917415 7.77279545 49.03952348 10.16580544 54.25 13.4375 C51.83650007 22.79268546 48.00743534 31.563776 44.25 40.4375 C40.37741385 39.80149133 37.09187154 38.63038043 33.5 37.0625 C22.22211786 32.26870735 12.71839179 30.24758999 0.4375 30.1875 C-0.60470703 30.166875 -1.64691406 30.14625 -2.72070312 30.125 C-11.47974589 30.08101234 -19.23142526 31.11645783 -25.75 37.4375 C-28.73017664 41.90776495 -28.35012228 46.19797085 -27.75 51.4375 C-25.19751387 56.43611866 -20.75526147 58.33374485 -15.75 60.4375 C-11.79059201 61.7061281 -7.77958755 62.72974081 -3.75 63.75 C-1.43575562 64.35769312 0.87803672 64.96710995 3.19140625 65.578125 C4.36203613 65.88556641 5.53266602 66.19300781 6.73876953 66.50976562 C46.2777854 76.9567313 46.2777854 76.9567313 55.84765625 90.73828125 C62.03132508 101.46505371 63.18160146 113.15920804 60.375 125.1875 C55.91169491 137.6377721 47.68426581 146.97289462 35.98828125 153.1640625 C27.95327006 156.81715829 19.9282501 158.94458321 11.25 160.4375 C10.33992188 160.62183594 9.42984375 160.80617188 8.4921875 160.99609375 C-5.30241577 162.87415419 -19.28843952 161.70048056 -32.75 158.4375 C-33.98878906 158.17066406 -35.22757813 157.90382813 -36.50390625 157.62890625 C-47.51043195 155.04656185 -58.88659434 150.64041954 -67.75 143.4375 C-67.13333953 139.69327927 -66.05434425 136.57728312 -64.46484375 133.13671875 C-63.79291992 131.67202148 -63.79291992 131.67202148 -63.10742188 130.17773438 C-62.63884766 129.17033203 -62.17027344 128.16292969 -61.6875 127.125 C-61.21505859 126.09826172 -60.74261719 125.07152344 -60.25585938 124.01367188 C-59.09197675 121.486048 -57.92322145 118.96079928 -56.75 116.4375 C-52.83107282 117.96598077 -49.21138137 119.76678555 -45.5 121.75 C-28.86927559 130.33984115 -8.36005965 134.65487409 10.10546875 130.125 C15.2744987 128.4678975 19.0605764 126.74586596 22.75 122.6875 C25.0337412 117.73939406 24.83930008 113.9018458 23.5625 108.5625 C21.79147187 105.69512112 20.45807393 105.46135338 17.25 104.4375 C15.94445595 103.83030282 14.64280056 103.21471804 13.34375 102.59375 C7.67223604 100.05292548 1.81842829 98.5423974 -4.1875 97 C-6.50134503 96.38818323 -8.81514694 95.77620337 -11.12890625 95.1640625 C-14.25596615 94.34574138 -17.38379386 93.53126636 -20.51513672 92.72949219 C-35.46085833 88.90083114 -50.07987013 84.37420283 -59.41015625 71.0703125 C-65.69843309 60.18041033 -66.68353295 47.47896375 -64.0625 35.22265625 C-63.13982417 32.78909876 -62.08792928 30.66738214 -60.75 28.4375 C-60.11384766 27.29474609 -60.11384766 27.29474609 -59.46484375 26.12890625 C-54.15040543 17.35046077 -47.00168888 11.77433034 -38 7.125 C-37.38141113 6.79943115 -36.76282227 6.4738623 -36.12548828 6.13842773 C-24.65449468 0.53404465 -12.52339062 -0.1060879 0 0 Z " fill="#39B6FF" transform="translate(1293.75,832.5625)"/>
<path d="M0 0 C13.44629711 10.49563692 22.5557417 23.89019188 25 41 C25.97043478 57.05913043 25.97043478 57.05913043 24 61 C-5.7 61 -35.4 61 -66 61 C-61.71971293 71.70071768 -58.01665097 77.17054328 -48 82 C-42.95881258 83.70483793 -38.35258727 84.32408908 -33.0625 84.25 C-32.35593262 84.24250732 -31.64936523 84.23501465 -30.92138672 84.22729492 C-20.36218545 84.00888759 -11.32724815 80.5510232 -3 74 C1.41726132 75.62853249 4.01593455 79.01712284 7.0625 82.4375 C8.11542321 83.60328221 9.16879446 84.76865995 10.22265625 85.93359375 C10.68422119 86.44978271 11.14578613 86.96597168 11.62133789 87.49780273 C13.03974642 89.04330791 14.50670112 90.52704055 16 92 C11.73394769 101.59861769 1.22537625 106.20995689 -8 110 C-27.32118463 116.5878256 -50.06086311 114.35380029 -68.375 105.8125 C-84.74072608 96.97275575 -95.24094084 83.89546586 -100.55786133 66.13671875 C-101.48689031 61.64701052 -101.22781522 57.00479077 -101.25 52.4375 C-101.270625 51.40302734 -101.29125 50.36855469 -101.3125 49.30273438 C-101.39464811 32.90391781 -95.04592296 18.15251157 -83.6796875 6.40625 C-79.46464508 2.62131395 -74.94691273 -0.26834622 -70 -3 C-69.32324219 -3.39832031 -68.64648438 -3.79664063 -67.94921875 -4.20703125 C-48.10218498 -15.1783729 -18.42728859 -12.65996926 0 0 Z " fill="#024BAD" transform="translate(1035,880)"/>
<path d="M0 0 C11.55 0 23.1 0 35 0 C38.36234641 6.72469283 41.49654304 13.33029192 44.328125 20.265625 C44.72143005 21.22031677 45.11473511 22.17500854 45.5199585 23.15863037 C46.76683226 26.18765104 48.0084977 29.21877438 49.25 32.25 C50.06606536 34.23451521 50.88246944 36.21889117 51.69921875 38.203125 C53.32207088 42.14757752 54.94089525 46.09364698 56.55664062 50.04101562 C58.23380314 54.13724718 59.9212675 58.22904952 61.61523438 62.31835938 C62.03399841 63.33267029 62.45276245 64.3469812 62.88421631 65.39202881 C63.6853951 67.33249159 64.48920259 69.27187166 65.29595947 71.21002197 C65.82960114 72.50549957 65.82960114 72.50549957 66.37402344 73.82714844 C66.68901794 74.58719177 67.00401245 75.34723511 67.32855225 76.13031006 C68 78 68 78 68 80 C68.66 80 69.32 80 70 80 C70.19258896 78.90361458 70.19258896 78.90361458 70.3890686 77.78507996 C70.96520209 75.15863475 71.73770898 72.91317705 72.77490234 70.4387207 C73.14008469 69.56121155 73.50526703 68.68370239 73.8815155 67.77960205 C74.27897476 66.83784119 74.67643402 65.89608032 75.0859375 64.92578125 C75.70587334 63.44171783 75.70587334 63.44171783 76.33833313 61.92767334 C77.67935177 58.72069398 79.02698618 55.51654455 80.375 52.3125 C81.29175171 50.12505655 82.20817403 47.93747503 83.12426758 45.74975586 C85.34862509 40.44110459 87.5785562 35.1348171 89.81048584 29.8293457 C91.1766795 26.57975499 92.53911773 23.32860374 93.90075684 20.07710266 C95.16021772 17.07105993 96.42366324 14.06670576 97.6875 11.0625 C98.12562012 10.01811768 98.56374023 8.97373535 99.01513672 7.89770508 C99.40588379 6.97368896 99.79663086 6.04967285 100.19921875 5.09765625 C100.52752686 4.31914307 100.85583496 3.54062988 101.1940918 2.73852539 C102 1 102 1 103 0 C105.44830426 -0.08843793 107.86820599 -0.11528752 110.31640625 -0.09765625 C111.41298805 -0.09553383 111.41298805 -0.09553383 112.53172302 -0.09336853 C114.87535632 -0.08775408 117.21889539 -0.07519922 119.5625 -0.0625 C121.14778508 -0.05748686 122.73307166 -0.05292363 124.31835938 -0.04882812 C128.2122761 -0.03777997 132.10612205 -0.02050572 136 0 C133.63099743 7.59853546 130.58258683 14.78335125 127.375 22.0625 C126.19401479 24.76188869 125.01672468 27.46288228 123.83984375 30.1640625 C123.5298494 30.87491501 123.21985504 31.58576752 122.90046692 32.31816101 C119.54934263 40.01367023 116.26476105 47.73716311 112.98684692 55.46408081 C111.92951508 57.95632128 110.87099863 60.44805589 109.81225586 62.93969727 C106.22811187 71.37756164 102.65280087 79.81907564 99.09007263 88.26600647 C97.31031157 92.48328003 95.52640809 96.698795 93.74197388 100.91409302 C92.88577578 102.93954384 92.03144498 104.96578522 91.1791687 106.9928894 C71.60369354 153.54610963 71.60369354 153.54610963 53.3671875 161.60546875 C38.91682989 167.02594872 23.31650191 166.86159507 9 161 C5.51833927 159.19306215 2.22600543 157.22995767 -1 155 C0.62682465 149.29676416 3.33197987 144.31986097 6.125 139.125 C6.59292969 138.24585938 7.06085938 137.36671875 7.54296875 136.4609375 C8.6912093 134.30505729 9.84363903 132.15153223 11 130 C13.4159217 130.93438087 15.76802053 131.88007099 18.0703125 133.0703125 C24.69991575 136.47334078 30.99465118 137.30311668 38.265625 135.41015625 C43.32706961 133.31409999 46.03682686 129.86793765 49.06640625 125.4140625 C51.51676427 119.0779903 47.05151834 111.95014823 44.5390625 106.1484375 C44.08119354 105.07692444 43.62332458 104.00541138 43.15158081 102.90142822 C41.6490913 99.38984965 40.13718036 95.88241503 38.625 92.375 C37.58216378 89.94341893 36.53985088 87.51161335 35.49804688 85.07958984 C32.84992504 78.9013994 30.19238979 72.72729962 27.53186035 66.55444336 C26.0744894 63.17284105 24.61852181 59.79063866 23.16308594 56.40820312 C19.12763581 47.0314831 15.08555396 37.65764679 11.03125 28.2890625 C10.51985977 27.10520462 10.51985977 27.10520462 9.99813843 25.89743042 C8.32623769 22.03337988 6.63781595 18.17793404 4.91796875 14.33496094 C4.42484192 13.22741959 4.42484192 13.22741959 3.92175293 12.09750366 C3.30452341 10.71371809 2.68281403 9.3319185 2.05578613 7.95254517 C0.78986997 5.10892584 0 3.15227825 0 0 Z " fill="#39B6FF" transform="translate(1359,871)"/>
<path d="M0 0 C11.13950124 8.5644453 16.12907081 20.16708585 18.28125 33.75390625 C18.76866727 39.92451467 18.63305644 46.12050305 18.57421875 52.3046875 C18.5686097 54.05730319 18.56434581 55.80992366 18.56135559 57.56254578 C18.55000973 62.13114871 18.52063346 66.69945645 18.48724365 71.26794434 C18.45086288 76.77308809 18.43733266 82.27833165 18.41988373 87.78356171 C18.39098792 96.10721395 18.33343006 104.43022102 18.28125 112.75390625 C6.73125 112.75390625 -4.81875 112.75390625 -16.71875 112.75390625 C-16.77482422 104.98859375 -16.77482422 104.98859375 -16.83203125 97.06640625 C-16.8623269 93.77600913 -16.89348512 90.48566505 -16.92773438 87.1953125 C-16.98194896 81.9790319 -17.03306307 76.76285624 -17.06518555 71.54638672 C-17.09130008 67.33813629 -17.13175933 63.13024057 -17.18193626 58.92221069 C-17.19855009 57.32120189 -17.21009839 55.72013181 -17.21636391 54.11904907 C-17.25791899 44.47150498 -17.4076199 36.76790326 -22.90625 28.44140625 C-29.01175117 22.60726069 -35.60574194 22.21936138 -43.7097168 22.26611328 C-50.98655105 22.55041117 -56.30008104 24.4664442 -61.55078125 29.515625 C-69.2414117 38.74063915 -69.18124004 49.9540063 -69.23046875 61.38671875 C-69.24734745 62.87459768 -69.2655019 64.36246263 -69.28486633 65.85031128 C-69.33202674 69.73323189 -69.36205421 73.61609581 -69.38830566 77.49920654 C-69.42357132 82.1759838 -69.48048568 86.85254342 -69.53369904 91.52914429 C-69.61181403 98.60403581 -69.66271985 105.67865033 -69.71875 112.75390625 C-80.93875 112.75390625 -92.15875 112.75390625 -103.71875 112.75390625 C-103.71875 73.15390625 -103.71875 33.55390625 -103.71875 -7.24609375 C-92.82875 -7.24609375 -81.93875 -7.24609375 -70.71875 -7.24609375 C-70.22375 -1.30609375 -70.22375 -1.30609375 -69.71875 4.75390625 C-68.23375 3.68140625 -66.74875 2.60890625 -65.21875 1.50390625 C-46.0628752 -11.87008251 -19.91159328 -12.89728201 0 0 Z " fill="#39B6FF" transform="translate(1612.71875,878.24609375)"/>
<path d="M0 0 C5.02369934 4.78100855 9.41075966 10.04477897 11.625 16.6875 C10.04912109 17.57501953 10.04912109 17.57501953 8.44140625 18.48046875 C7.7649707 18.86162842 7.08853516 19.24278809 6.39160156 19.63549805 C4.91950938 20.46334608 3.44619448 21.28902354 1.97167969 22.11254883 C-1.14812402 23.85680272 -4.24735946 25.60979094 -7.30078125 27.46875 C-8.06777344 27.9328125 -8.83476563 28.396875 -9.625 28.875 C-10.26953125 29.28105469 -10.9140625 29.68710937 -11.578125 30.10546875 C-13.375 30.6875 -13.375 30.6875 -15.41015625 30.04296875 C-17.61620265 28.52110374 -18.93781823 26.93862676 -20.5625 24.8125 C-25.55580241 18.88295338 -32.38616499 16.13371545 -40.0390625 15.44921875 C-49.63301862 15.208737 -57.65512333 17.19864828 -64.83984375 23.83984375 C-72.58188655 33.1578749 -73.33546884 44.11626506 -72.375 55.6875 C-70.85611566 63.38257065 -67.35350485 69.57684263 -61.375 74.6875 C-53.0032013 79.98143153 -44.07111775 80.82215208 -34.375 79.6875 C-28.16171788 77.80160454 -23.6448741 74.56735611 -19.375 69.6875 C-17.725 68.0375 -16.075 66.3875 -14.375 64.6875 C-5.795 69.3075 2.785 73.9275 11.625 78.6875 C9.53746224 83.90634439 7.14345439 87.39810222 3.625 91.6875 C3.14417969 92.28949219 2.66335938 92.89148438 2.16796875 93.51171875 C-5.13986001 101.74458912 -16.86222775 106.24266924 -27.375 108.6875 C-28.09945313 108.86925781 -28.82390625 109.05101562 -29.5703125 109.23828125 C-49.54180494 112.43705789 -68.64000306 107.82628051 -85.375 96.69140625 C-97.6734448 87.38216678 -105.64232795 73.86847207 -108.375 58.6875 C-108.6709782 55.07893662 -108.70924011 51.4944179 -108.6875 47.875 C-108.68186035 46.89740723 -108.6762207 45.91981445 -108.67041016 44.91259766 C-108.55551507 38.09966042 -108.05887688 32.02104279 -105.375 25.6875 C-104.9728125 24.70910156 -104.570625 23.73070312 -104.15625 22.72265625 C-100.73335086 15.18277009 -96.23700639 9.48692269 -90.375 3.6875 C-89.59769531 2.85992188 -89.59769531 2.85992188 -88.8046875 2.015625 C-66.63569404 -19.57302831 -22.85481568 -19.60450507 0 0 Z " fill="#39B6FF" transform="translate(1761.375,883.3125)"/>
<path d="M0 0 C8.81282278 5.06974214 13.48511374 12.52020368 16.1796875 22.25390625 C16.41686678 24.89045728 16.56098726 27.37123781 16.5546875 30.00390625 C16.55227051 31.05843994 16.55227051 31.05843994 16.54980469 32.13427734 C16.33787598 41.1869575 12.977534 49.25972844 6.65234375 55.84375 C-0.42212782 62.40488123 -7.39604729 63.78839229 -16.81396484 63.74389648 C-25.75949181 63.4019293 -32.33322702 59.70549366 -38.3515625 53.21875 C-45.3246725 43.89036082 -45.40960262 33.39585458 -44.8203125 22.25390625 C-43.51062217 14.38466518 -39.13474117 8.47875577 -33.5078125 3.00390625 C-23.10047809 -3.77296267 -11.57241252 -5.44472524 0 0 Z " fill="#FCFDFE" transform="translate(1153.8203125,900.74609375)"/>
<path d="M0 0 C6.98473105 4.4436909 11.8893735 10.37061974 14.1796875 18.38671875 C14.1796875 19.70671875 14.1796875 21.02671875 14.1796875 22.38671875 C-5.2903125 22.38671875 -24.7603125 22.38671875 -44.8203125 22.38671875 C-43.27122637 13.09220198 -40.37358464 8.38090756 -33.33203125 2.1484375 C-23.91467122 -4.4568959 -10.37176891 -4.97635377 0 0 Z " fill="#F7F9FC" transform="translate(1012.8203125,898.61328125)"/>
</svg>
