<?xml version="1.0" encoding="UTF-8"?>
<svg version="1.1" xmlns="http://www.w3.org/2000/svg" viewBox="200 620 1640 560">
<path d="M0 0 C1.00587158 0.00942627 2.01174316 0.01885254 3.0480957 0.02856445 C10.55528399 0.18058577 17.48235477 0.93844427 24.625 3.375 C26.13900391 3.88546875 26.13900391 3.88546875 27.68359375 4.40625 C35.24337732 7.25681807 41.33263349 11.36108256 47.625 16.375 C48.27210938 16.85710938 48.91921875 17.33921875 49.5859375 17.8359375 C61.81161652 27.40626542 70.2131789 44.22035511 72.625 59.375 C73.3162013 67.53526401 73.09234426 75.74897273 73.015625 83.9296875 C73.00815107 86.28621945 73.00246359 88.64275767 72.99847412 90.9992981 C72.98330857 97.15767011 72.94410599 103.31565597 72.8996582 109.47387695 C72.8585084 115.77550027 72.84042124 122.07718688 72.8203125 128.37890625 C72.77760215 140.7111058 72.70946233 153.0430206 72.625 165.375 C73.87986206 165.36611755 75.13472412 165.35723511 76.4276123 165.3480835 C88.31322251 165.26663293 100.19877532 165.20686053 112.08460236 165.16775131 C118.19372789 165.14696826 124.30262625 165.11882174 130.41162109 165.07324219 C136.31850892 165.02945154 142.22517965 165.00579329 148.13221741 164.99549103 C150.37422599 164.98815887 152.61622409 164.97384279 154.85813904 164.95207977 C170.66883406 164.80484801 185.65725945 165.42071584 199.9375 173.0625 C200.59500244 173.40571289 201.25250488 173.74892578 201.92993164 174.10253906 C219.30058523 183.4929986 230.33661878 199.32618363 236.7890625 217.6875 C241.84310871 236.58113069 238.15170475 256.06820732 229.16796875 273.14453125 C218.61805239 291.08708973 201.5259093 302.12108356 181.625 307.375 C176.22268614 308.5155792 170.98138271 308.50949864 165.48876953 308.48852539 C164.4832756 308.48867142 163.47778168 308.48881744 162.44181824 308.4889679 C159.13046077 308.48827327 155.8191601 308.48050194 152.5078125 308.47265625 C150.20710277 308.47079047 147.90639264 308.46936732 145.60568237 308.46836853 C139.55915219 308.46455594 133.51264615 308.45473639 127.46612549 308.44366455 C121.29252448 308.43342338 115.11891956 308.42886511 108.9453125 308.42382812 C96.83853108 308.413113 84.73176755 308.39605168 72.625 308.375 C72.63610306 309.59814407 72.64720612 310.82128815 72.65864563 312.08149719 C72.76061374 323.68653376 72.83524702 335.2914778 72.88406086 346.89686298 C72.91000142 352.86136561 72.94511138 358.82550262 73.00219727 364.78979492 C73.05707638 370.560549 73.08653692 376.33095451 73.09938622 382.10194969 C73.1085268 384.28846908 73.12637167 386.47497239 73.15365028 388.66134071 C73.43321772 412.02727292 69.55955748 432.40157197 53.625 450.375 C53.09390625 451.00019531 52.5628125 451.62539062 52.015625 452.26953125 C43.71960199 461.36640797 32.13202082 466.59788629 20.625 470.375 C19.58472656 470.74238281 18.54445313 471.10976562 17.47265625 471.48828125 C-2.02047667 475.98060731 -21.58683376 471.57349914 -38.375 461.375 C-53.12483599 451.58183831 -64.17726213 435.61894478 -68.375 418.375 C-69.39819736 412.56206429 -69.51089492 406.9275355 -69.48852539 401.03344727 C-69.48867142 400.01805374 -69.48881744 399.00266022 -69.4889679 397.95649719 C-69.4882742 394.61811141 -69.48050727 391.27978222 -69.47265625 387.94140625 C-69.47079014 385.61970551 -69.46936715 383.29800438 -69.46836853 380.9763031 C-69.46455854 374.8788239 -69.45474124 368.78136868 -69.44366455 362.68389893 C-69.43341776 356.45658696 -69.42886391 350.2292711 -69.42382812 344.00195312 C-69.41311759 331.79295824 -69.39605944 319.58398112 -69.375 307.375 C-70.62986206 307.38388245 -71.88472412 307.39276489 -73.1776123 307.4019165 C-85.06322251 307.48336707 -96.94877532 307.54313947 -108.83460236 307.58224869 C-114.94372789 307.60303174 -121.05262625 307.63117826 -127.16162109 307.67675781 C-133.06850892 307.72054846 -138.97517965 307.74420671 -144.88221741 307.75450897 C-147.12422599 307.76184113 -149.36622409 307.77615721 -151.60813904 307.79792023 C-167.45174211 307.94545844 -182.42316499 307.29624541 -196.75 299.6875 C-197.40863037 299.3479126 -198.06726074 299.0083252 -198.74584961 298.65844727 C-204.7780457 295.41136511 -209.58004118 291.25032126 -214.375 286.375 C-214.99503906 285.83617187 -215.61507812 285.29734375 -216.25390625 284.7421875 C-227.68046147 274.56820769 -234.50542418 257.27170892 -235.51660156 242.27490234 C-236.50242458 222.81111099 -231.98284624 204.85298328 -218.9375 189.9375 C-217.43849041 188.39515169 -215.91828222 186.87304808 -214.375 185.375 C-213.68921875 184.68019531 -213.0034375 183.98539063 -212.296875 183.26953125 C-194.82939362 166.54603519 -175.41658608 164.77249182 -152.3828125 164.984375 C-149.98143996 164.99184857 -147.58006127 164.99753622 -145.17868042 165.00152588 C-138.90194436 165.01669425 -132.62558695 165.0558994 -126.34899902 165.1003418 C-119.92672851 165.14148539 -113.50439597 165.15957745 -107.08203125 165.1796875 C-94.51286063 165.22240284 -81.94395059 165.28976172 -69.375 165.375 C-69.38166183 164.09872742 -69.38832367 162.82245483 -69.39518738 161.50750732 C-69.45616337 149.44403338 -69.50105164 137.38059096 -69.53043652 125.31699753 C-69.54605171 119.11588843 -69.56721409 112.91490435 -69.60131836 106.71386719 C-69.63405981 100.7227176 -69.65188416 94.73168782 -69.65963173 88.74045563 C-69.66514876 86.46166347 -69.6759218 84.18287742 -69.69219017 81.90413666 C-69.84853357 59.08469963 -69.84853357 59.08469963 -66.375 49.375 C-65.81039062 47.68697266 -65.81039062 47.68697266 -65.234375 45.96484375 C-57.33848573 27.08699581 -44.49056913 13.67720731 -26.140625 4.8125 C-17.50208227 1.31246283 -9.29832912 -0.13589684 0 0 Z " fill="#60C5FE" transform="translate(435.375,673.625)"/>
<path d="M0 0 C1.00587158 0.00942627 2.01174316 0.01885254 3.0480957 0.02856445 C10.55528399 0.18058577 17.48235477 0.93844427 24.625 3.375 C26.13900391 3.88546875 26.13900391 3.88546875 27.68359375 4.40625 C35.24337732 7.25681807 41.33263349 11.36108256 47.625 16.375 C48.59566406 17.09816406 48.59566406 17.09816406 49.5859375 17.8359375 C61.81161652 27.40626542 70.2131789 44.22035511 72.625 59.375 C73.3162013 67.53526401 73.09234426 75.74897273 73.015625 83.9296875 C73.00815107 86.28621945 73.00246359 88.64275767 72.99847412 90.9992981 C72.98330857 97.15767011 72.94410599 103.31565597 72.8996582 109.47387695 C72.8585084 115.77550027 72.84042124 122.07718688 72.8203125 128.37890625 C72.77760215 140.7111058 72.70946233 153.0430206 72.625 165.375 C73.87986206 165.36611755 75.13472412 165.35723511 76.4276123 165.3480835 C88.31322251 165.26663293 100.19877532 165.20686053 112.08460236 165.16775131 C118.19372789 165.14696826 124.30262625 165.11882174 130.41162109 165.07324219 C136.31850892 165.02945154 142.22517965 165.00579329 148.13221741 164.99549103 C150.37422599 164.98815887 152.61622409 164.97384279 154.85813904 164.95207977 C170.66883406 164.80484801 185.65725945 165.42071584 199.9375 173.0625 C200.59500244 173.40571289 201.25250488 173.74892578 201.92993164 174.10253906 C219.30058523 183.4929986 230.33661878 199.32618363 236.7890625 217.6875 C241.84310871 236.58113069 238.15170475 256.06820732 229.16796875 273.14453125 C219.24590998 290.01927354 203.03549592 301.61410986 184.25954056 306.81586456 C175.09592573 308.76068252 165.43134841 308.08906173 156.12109375 307.9609375 C153.70159466 307.94972133 151.28208178 307.94119262 148.86256409 307.93521118 C142.55112866 307.91250372 136.24054608 307.85373858 129.92944336 307.7869873 C123.46675141 307.72517167 117.00391917 307.69811285 110.54101562 307.66796875 C97.90198378 307.60397609 85.26353764 307.503003 72.625 307.375 C72.61913376 306.64409653 72.61326752 305.91319305 72.60722351 305.16014099 C72.54883392 298.2038863 72.47650201 291.24789429 72.38928509 284.29194546 C72.34493823 280.71752195 72.30560878 277.14320313 72.27856445 273.56860352 C72.25216863 270.10593264 72.21152541 266.6436728 72.16181374 263.18126106 C72.13750134 261.2458909 72.12719532 259.31036052 72.11735535 257.37486267 C71.72533858 233.21053456 63.7657228 210.64808359 46.625 193.375 C45.3565625 192.0446875 45.3565625 192.0446875 44.0625 190.6875 C43.258125 189.924375 42.45375 189.16125 41.625 188.375 C41.0784375 187.84519531 40.531875 187.31539062 39.96875 186.76953125 C17.9366065 166.31756197 -10.39580117 164.92891739 -38.8237915 164.70544434 C-42.27718617 164.67523343 -45.73036385 164.62884717 -49.18359375 164.58398438 C-55.91396038 164.49972881 -62.64434296 164.4311145 -69.375 164.375 C-69.44470115 151.15275051 -69.49791323 137.93054518 -69.53043652 124.70814896 C-69.54605093 118.56757336 -69.56721185 112.42712404 -69.60131836 106.28662109 C-69.63406264 100.35382608 -69.65188474 94.42115207 -69.65963173 88.48827362 C-69.66514826 86.23180997 -69.6759203 83.97535247 -69.69219017 81.71894073 C-69.84856726 59.12006625 -69.84856726 59.12006625 -66.375 49.375 C-65.99859375 48.24964844 -65.6221875 47.12429688 -65.234375 45.96484375 C-57.33848573 27.08699581 -44.49056913 13.67720731 -26.140625 4.8125 C-17.50208227 1.31246283 -9.29832912 -0.13589684 0 0 Z " fill="#004AAD" transform="translate(435.375,673.625)"/>
<path d="M0 0 C7.41624864 -0.07021596 14.83242298 -0.12316792 22.24893951 -0.15543652 C25.69456411 -0.17094162 29.13995758 -0.19189342 32.58544922 -0.22631836 C62.23502352 -0.51446719 62.23502352 -0.51446719 75 3 C75.82226074 3.22453857 76.64452148 3.44907715 77.49169922 3.68041992 C102.13031215 11.184696 120.79431079 28.7252849 133 51 C140.17601602 65.65025609 142.16167403 79.92553016 142.09765625 96.02734375 C142.0957884 97.38497363 142.09436623 98.74260419 142.09336853 100.10023499 C142.08957222 103.65282084 142.07976696 107.20536504 142.06866455 110.75793457 C142.05838801 114.39135169 142.0538576 118.02477562 142.04882812 121.65820312 C142.03814177 128.77215233 142.02110049 135.88607343 142 143 C133.68836059 143.11694881 125.377077 143.20523999 117.06481266 143.25906086 C113.20314599 143.28492008 109.34205079 143.31987061 105.48071289 143.37719727 C72.60862623 143.8520827 72.60862623 143.8520827 59 138 C58.14446533 137.65928467 57.28893066 137.31856934 56.4074707 136.9675293 C54.41813412 136.12418242 52.529262 135.20600935 50.625 134.1875 C49.64225098 133.67558105 49.64225098 133.67558105 48.63964844 133.15332031 C25.20339229 120.63635957 11.35949506 101.09503234 2.89453125 76.3125 C0.27577768 66.61510688 -0.27493273 57.3858372 -0.1953125 47.36328125 C-0.19157217 45.98894967 -0.18873004 44.61461538 -0.18673706 43.24028015 C-0.17918072 39.6613907 -0.15960332 36.08266928 -0.1373291 32.50384521 C-0.11669602 28.83657096 -0.1076984 25.16926897 -0.09765625 21.50195312 C-0.07634793 14.33455966 -0.04231158 7.16730357 0 0 Z " fill="#23ADFE" transform="translate(366,838)"/>
  <text x="720" y="980" font-family="Segoe UI, Arial, Helvetica, sans-serif" font-size="238" font-weight="700" letter-spacing="-6">
    <tspan fill="#004AAD">Med</tspan><tspan fill="#39B6FF">Sync</tspan>
  </text>
</svg>
